<svg width="17" height="17" viewBox="0 0 17 17" fill="none" xmlns="http://www.w3.org/2000/svg">
<g clip-path="url(#clip0_1910_4)">
<path d="M16.4624 10.1709L15.4315 9.14051H15.7635C16.3856 9.14051 17.0542 8.94873 17.0542 8.52905V8.52692V8.52479C17.0542 8.10511 16.3848 7.91333 15.7625 7.91333H15.4352L16.3604 6.98842C16.8005 6.54881 17.1384 5.94026 16.842 5.64303C16.791 5.59256 16.6996 5.53253 16.5503 5.53253C16.2655 5.53253 15.8621 5.7599 15.4968 6.12461L13.9379 7.68383C13.8627 7.75847 13.7955 7.8363 13.7325 7.91333H9.97395L12.6408 5.24645C12.6451 5.24326 12.6496 5.23795 12.6533 5.23397L12.6613 5.22653C12.8071 5.24905 12.9544 5.26024 13.102 5.26H15.3061C15.9287 5.26 16.5984 5.06875 16.5984 4.64906C16.5984 4.22991 15.929 4.03812 15.3072 4.03812H13.8492L14.0834 3.80437C14.3071 3.58072 14.4859 3.33422 14.5863 3.11056C14.6572 2.95198 14.6782 2.82847 14.6734 2.73019V2.72806C14.6734 2.67202 14.6606 2.62394 14.6458 2.58516C14.6442 2.58144 14.6423 2.57931 14.6413 2.57666C14.6236 2.53297 14.5978 2.49304 14.5653 2.45898H14.564C14.514 2.40798 14.4221 2.34769 14.2728 2.34769C13.9875 2.34769 13.5835 2.57506 13.2183 2.94083L12.9867 3.17245V1.86319C12.9867 1.24136 12.796 0.571984 12.3757 0.571984C11.956 0.571984 11.7653 1.24136 11.7653 1.86319L11.7659 4.06841C11.7659 4.17386 11.773 4.27586 11.7831 4.37626L9.14627 7.0118V3.33289V3.30128C9.25942 3.2192 9.37125 3.12676 9.48149 3.01706L11.0407 1.45837C11.4808 1.0177 11.8187 0.409422 11.522 0.11325C11.4721 0.0625156 11.381 0.00195312 11.2317 0.00195312C10.9467 0.00195312 10.5424 0.229328 10.1774 0.594562L9.14653 1.62519V1.29369C9.14653 0.671328 8.95608 0.00195312 8.53639 0.00195312L8.5348 0.00248437L8.53161 0.00195312C8.11245 0.00195312 7.92067 0.672125 7.92067 1.29422V1.62147L6.99523 0.696297C6.63053 0.331328 6.22652 0.104219 5.94203 0.104219C5.79275 0.104219 5.70138 0.164781 5.65038 0.214984C5.56936 0.296 5.45966 0.487516 5.62939 0.866562C5.73033 1.09022 5.90777 1.33672 6.13222 1.55984L7.69144 3.11906C7.76661 3.19423 7.84444 3.25984 7.92094 3.32306V7.0033L5.29922 4.38131C5.29497 4.37653 5.28966 4.37175 5.28541 4.36776L5.27744 4.36033C5.30002 4.21689 5.3117 4.06761 5.3117 3.91966V1.7155C5.3117 1.09341 5.12099 0.423766 4.70077 0.423766C4.28161 0.423766 4.09036 1.09261 4.09036 1.71497V3.17272L3.85608 2.93844C3.49058 2.57294 3.08709 2.34636 2.80341 2.34636C2.65306 2.34636 2.56169 2.40639 2.51122 2.45712H2.51042C2.50963 2.45898 2.51042 2.45925 2.5067 2.46031C2.50564 2.46191 2.50564 2.46323 2.50484 2.46456C2.47569 2.49504 2.45221 2.53048 2.43552 2.56922C2.42702 2.58808 2.42224 2.60747 2.41772 2.62686C2.41267 2.6412 2.41055 2.65687 2.40763 2.67387C2.35609 2.99528 2.63713 3.45348 2.98908 3.80597L3.22123 4.03759H1.91277C1.29014 4.03759 0.621032 4.22884 0.621032 4.64853C0.621032 5.06822 1.29041 5.2584 1.91277 5.2584H4.11905C4.22424 5.2584 4.32491 5.25203 4.42425 5.24114L7.09909 7.91598H3.3073C3.21933 7.79761 3.12311 7.68559 3.01936 7.58076L1.46014 6.02208C1.09544 5.65684 0.691688 5.43 0.406407 5.43C0.257657 5.43 0.165751 5.49056 0.115548 5.54076C-0.181421 5.83694 0.156454 6.44548 0.59686 6.88509L1.62749 7.91572H1.29599C0.673626 7.91572 0.00425069 8.1075 0.00425069 8.52719L0.00531319 8.52931L0.00425069 8.53144C0.00425069 8.95112 0.674423 9.1429 1.29652 9.1429H1.6243L0.699126 10.0681C0.258985 10.508 -0.0788899 11.1162 0.217548 11.4135C0.268016 11.4637 0.359391 11.5237 0.509204 11.5237C0.793954 11.5237 1.19797 11.2963 1.56241 10.9316L3.12163 9.3724C3.19627 9.29803 3.264 9.2202 3.32695 9.1429H7.01728L4.43063 11.729C4.42531 11.7338 4.4208 11.7391 4.41495 11.7444L4.40964 11.7505C4.26398 11.7283 4.11685 11.7171 3.9695 11.7171H1.76402C1.14219 11.7171 0.471751 11.9078 0.471751 12.3275C0.471751 12.7472 1.14192 12.9384 1.76402 12.9384H3.22123L2.98695 13.1727C2.7633 13.3961 2.58559 13.6426 2.48466 13.8665C2.4132 14.0248 2.39328 14.1486 2.39753 14.2472V14.2487C2.40072 14.3053 2.41055 14.3529 2.42489 14.3922C2.42682 14.3946 2.42826 14.3974 2.42914 14.4004C2.45066 14.4527 2.47961 14.4918 2.50591 14.5176C2.50697 14.5181 2.50697 14.5192 2.50803 14.5197C2.50909 14.5207 2.50909 14.5207 2.50909 14.5213C2.55983 14.5715 2.65094 14.6315 2.80128 14.6315C3.08497 14.6315 3.48925 14.4049 3.85502 14.0392L4.08611 13.8081V15.116C4.08611 15.7386 4.27736 16.4077 4.69758 16.4077C4.811 16.4077 5.0243 16.3493 5.17199 15.9623C5.25991 15.7333 5.30745 15.4326 5.30745 15.1157V12.9119C5.30745 12.8064 5.30028 12.7039 5.29019 12.604L7.92094 9.97325V13.7579C7.80858 13.8399 7.69516 13.9321 7.58572 14.0421L6.02703 15.6005C5.58636 16.0412 5.24795 16.6495 5.54545 16.9459C5.59592 16.9966 5.68783 17.0572 5.83711 17.0572C6.12239 17.0572 6.52534 16.8298 6.89031 16.4649L7.92094 15.434V15.7655C7.92094 16.3881 8.11272 17.0572 8.53188 17.0572V17.0567L8.534 17.0572C8.95369 17.0572 9.14441 16.387 9.14441 15.7649V15.4379L10.0696 16.3629C10.4345 16.7278 10.8388 16.9549 11.1238 16.9549C11.2731 16.9549 11.365 16.8944 11.415 16.8442C11.496 16.7632 11.6062 16.5716 11.436 16.1929C11.3361 15.9695 11.1576 15.7224 10.9337 15.4993L9.37444 13.9404C9.299 13.8652 9.22223 13.7996 9.14441 13.7364V9.96501L11.7762 12.5968C11.7794 12.6005 11.7837 12.604 11.7874 12.6082L11.7961 12.6167C11.7739 12.7624 11.7627 12.9095 11.7627 13.0569V15.2616C11.7627 15.8842 11.9539 16.5533 12.3736 16.5533C12.7928 16.5533 12.9845 15.8839 12.9845 15.2616V13.8044L13.2188 14.0384C13.5835 14.4039 13.9881 14.6312 14.2728 14.6312C14.4221 14.6312 14.5138 14.5707 14.564 14.5199C14.564 14.5189 14.565 14.5184 14.565 14.5184C14.5984 14.4846 14.6248 14.4445 14.6426 14.4004L14.6476 14.3898C14.6628 14.351 14.6713 14.3048 14.6753 14.2509V14.2434C14.6784 14.1454 14.6575 14.0219 14.5881 13.8652C14.4883 13.6415 14.3098 13.3948 14.0853 13.1708L13.8537 12.9397H15.1627C15.7848 12.9397 16.4539 12.748 16.4539 12.3293C16.4539 11.9091 15.7845 11.7184 15.1627 11.7184H12.9553C12.8539 11.7184 12.7513 11.7256 12.6501 11.7354L10.0576 9.14344H13.7527C13.8393 9.25978 13.9371 9.37347 14.0412 9.47865L15.5996 11.0373C15.9649 11.4023 16.3689 11.6294 16.6536 11.6294C16.8029 11.6294 16.894 11.5689 16.9448 11.5187C17.2415 11.2225 16.9033 10.6142 16.4632 10.1741" fill="#1B75BB"/>
<path d="M9.65547 1.29173V1.62323L10.6861 0.592609C10.9432 0.33575 11.2173 0.153 11.4567 0.0640156C11.4035 0.0294844 11.3297 0 11.2272 0C10.9422 0 10.5379 0.227375 10.1729 0.592609L9.64909 1.11748C9.65201 1.17512 9.65547 1.23356 9.65547 1.29173Z" fill="#1C679A"/>
<path d="M8.43067 1.61952V1.29227C8.43067 0.814141 8.54463 0.311578 8.78714 0.102531C8.71383 0.0393125 8.62963 0 8.53294 0L8.53134 0.00053125L8.52816 0C8.14831 0 7.95759 0.54825 7.92359 1.11377L8.43067 1.61952Z" fill="#1C679A"/>
<path d="M12.07 0.72174C12.0204 0.836507 11.9594 0.94597 11.8878 1.04846C11.8044 1.28433 11.7616 1.57652 11.7616 1.86127L11.7621 4.06649C11.7621 4.17194 11.7693 4.27394 11.7794 4.37435L9.656 6.49722V7.00988L12.2915 4.37435C12.2809 4.27207 12.2753 4.16932 12.2748 4.06649V1.86127C12.2748 1.38501 12.3885 0.883772 12.6289 0.673928C12.5556 0.609381 12.4703 0.570068 12.372 0.570068C12.2535 0.570068 12.1537 0.629303 12.07 0.72174Z" fill="#1C679A"/>
<path d="M4.62878 5.25639H4.43859L7.09484 7.91264H7.60803L4.93319 5.23779C4.83204 5.24934 4.73032 5.2552 4.62851 5.25532" fill="#1C679A"/>
<path d="M5.75184 1.09015C5.85066 1.24714 5.97789 1.40811 6.1285 1.55819L7.68772 3.1174C7.76289 3.19258 7.84072 3.25819 7.91722 3.3214V6.48845L8.43067 7.00164V3.32114C8.35048 3.2574 8.27387 3.1893 8.20117 3.11714L6.64142 1.55792C6.41777 1.33479 6.239 1.08829 6.13912 0.864639C5.96833 0.485857 6.07883 0.294076 6.16011 0.213061C6.17879 0.195459 6.19906 0.17963 6.22067 0.165779C6.11973 0.127264 6.02305 0.102295 5.93858 0.102295C5.7893 0.102295 5.69792 0.162857 5.64692 0.213061C5.58636 0.273889 5.50933 0.396342 5.54678 0.613889C5.63842 0.733951 5.70616 0.899967 5.75184 1.09015Z" fill="#1C679A"/>
<path d="M13.1622 11.7326C13.2637 11.7227 13.366 11.7156 13.4672 11.7156H13.1442L13.1622 11.7326Z" fill="#1C679A"/>
<path d="M13.1537 5.24746L13.1413 5.26101H13.6154C13.4672 5.26101 13.3176 5.24985 13.1747 5.22754L13.167 5.23498C13.1622 5.23896 13.1577 5.24427 13.1537 5.24746Z" fill="#1C679A"/>
<path d="M13.7325 7.91361H14.2455C14.309 7.83631 14.3762 7.75875 14.4503 7.68411L16.0095 6.12489C16.2658 5.86856 16.5405 5.68581 16.7801 5.59603C16.7114 5.55304 16.6316 5.53106 16.5506 5.53281C16.2658 5.53281 15.8623 5.76019 15.4971 6.12489L13.9381 7.68411C13.8627 7.75848 13.7958 7.83631 13.7325 7.91361Z" fill="#1C679A"/>
<path d="M16.1102 11.0343L14.5515 9.4756C14.4475 9.37117 14.3514 9.25912 14.2641 9.14038H13.7503C13.8369 9.25672 13.9347 9.37041 14.0388 9.4756L15.5972 11.0343C15.9625 11.3993 16.3665 11.6264 16.6512 11.6264C16.7543 11.6264 16.8276 11.5977 16.8818 11.5629C16.6406 11.4739 16.367 11.2911 16.1102 11.0343Z" fill="#1C679A"/>
<path d="M4.91937 11.7485L4.92495 11.7424L4.93983 11.727L7.52702 9.14087H7.01383L4.43939 11.715H4.47817C4.62559 11.715 4.77594 11.7265 4.91937 11.7485Z" fill="#1C679A"/>
<path d="M13.4969 3.17032L13.7286 2.93869C13.9849 2.68183 14.2595 2.49855 14.4997 2.4093C14.4309 2.36599 14.3509 2.34383 14.2696 2.34555C14.0561 2.34555 13.7764 2.47385 13.4969 2.69007V3.17032Z" fill="#1C679A"/>
<path d="M0.788108 11.459C0.766271 11.4451 0.745734 11.4292 0.726749 11.4117C0.429515 11.1144 0.768718 10.5062 1.20806 10.0665L2.13376 9.14137H1.80625C1.18362 9.14137 0.513452 8.94959 0.513452 8.5299C0.513452 8.52937 0.515046 8.52831 0.515046 8.52778C0.515046 8.52725 0.513452 8.52619 0.513452 8.52565C0.513452 8.10597 1.18362 7.91419 1.80572 7.91419H2.13722L1.10712 6.88356C0.665921 6.44395 0.328046 5.8354 0.625015 5.53923C0.640687 5.52356 0.662202 5.50762 0.686374 5.49142C0.585171 5.4537 0.488483 5.42847 0.403218 5.42847C0.254468 5.42847 0.162562 5.48903 0.112358 5.53923C-0.18461 5.8354 0.153265 6.44395 0.593671 6.88356L1.6243 7.91419H1.29253C0.670171 7.91419 0.000795981 8.10597 0.000795981 8.52565L0.00185848 8.52778L0.000795981 8.5299C0.000795981 8.94959 0.670968 9.14137 1.29306 9.14137H1.62084L0.695671 10.0665C0.25553 10.5062 -0.0823446 11.1144 0.214093 11.4117C0.264562 11.4619 0.355937 11.5219 0.505749 11.5219C0.590218 11.5219 0.686905 11.4961 0.788108 11.459Z" fill="#1C679A"/>
<path d="M8.43067 15.7622V15.4307L7.92359 15.9367C7.9568 16.5035 8.14805 17.0539 8.52816 17.0539V17.0534L8.53028 17.0539C8.62697 17.0539 8.71117 17.0146 8.78448 16.9514C8.5417 16.7423 8.42802 16.2403 8.42802 15.7622" fill="#1C679A"/>
<path d="M6.05439 16.9426C5.75822 16.6462 6.09583 16.0379 6.53597 15.5972L8.09519 14.0388C8.20489 13.9288 8.31725 13.8364 8.4304 13.7546V13.7373V9.96997L7.91695 10.4834V13.7538C7.80459 13.8359 7.69117 13.928 7.58173 14.038L6.02305 15.5964C5.58237 16.0371 5.24397 16.6454 5.54147 16.9418C5.59194 16.9926 5.68384 17.0531 5.83312 17.0531C5.91759 17.0531 6.01481 17.0274 6.11522 16.9891C6.09335 16.9756 6.07296 16.9599 6.05439 16.9421" fill="#1C679A"/>
<path d="M10.5817 16.36L9.6568 15.4351V15.762C9.6568 15.8215 9.65308 15.8813 9.65069 15.9408L10.0688 16.36C10.4337 16.7249 10.838 16.952 11.123 16.952C11.2256 16.952 11.2997 16.9234 11.3531 16.8886C11.113 16.799 10.838 16.6168 10.5817 16.36Z" fill="#1C679A"/>
<path d="M12.2745 15.2575V13.0528C12.2745 12.9057 12.2862 12.7553 12.3088 12.6127L12.2998 12.6042C12.296 12.5999 12.2921 12.5965 12.2883 12.5928L9.65706 9.96094V10.4736L11.7757 12.593C11.7789 12.5967 11.7831 12.6002 11.7868 12.6044L11.7956 12.6129C11.7733 12.7586 11.7622 12.9057 11.7621 13.0531V15.2578C11.7621 15.5457 11.8052 15.8403 11.8912 16.0783C11.9112 16.1157 11.9327 16.1529 11.9486 16.1888C11.9643 16.2233 11.9749 16.2539 11.9858 16.2852C12.082 16.4459 12.2097 16.5495 12.3731 16.5495C12.4714 16.5495 12.5564 16.5102 12.6294 16.4454C12.3882 16.2358 12.2745 15.734 12.2745 15.2575Z" fill="#1C679A"/>
<path d="M13.7304 14.035L13.4967 13.801V14.2818C13.7777 14.4994 14.0571 14.6282 14.2715 14.6282C14.374 14.6282 14.4479 14.599 14.501 14.5642C14.2609 14.4752 13.9867 14.2919 13.7304 14.035Z" fill="#1C679A"/>
<path d="M1.90931 5.25646H2.42144C1.79987 5.25646 1.13076 5.06627 1.1297 4.64658C1.1297 4.22663 1.79987 4.03564 2.42144 4.03564H1.90931C1.28669 4.03564 0.617577 4.22689 0.617577 4.64658C0.617577 5.06627 1.28669 5.25646 1.90931 5.25646Z" fill="#1C679A"/>
<path d="M4.36528 2.9351L4.59956 3.16939V1.71163C4.59956 1.2351 4.71351 0.733338 4.9547 0.52376C4.88059 0.459213 4.79612 0.420166 4.69731 0.420166C4.27815 0.420166 4.0869 1.08901 4.0869 1.71137V2.68781C4.18014 2.76112 4.27417 2.84373 4.36528 2.9351Z" fill="#1C679A"/>
<path d="M4.59584 15.1134V13.8054L4.36395 14.0365C4.27565 14.1256 4.18159 14.2089 4.08239 14.2857V15.1134C4.08239 15.736 4.27364 16.4051 4.69386 16.4051C4.75681 16.4051 4.85244 16.3846 4.94912 16.301C4.7082 16.0911 4.59584 15.5899 4.59584 15.1134Z" fill="#1C679A"/>
<path d="M3.21672 4.03545H3.72937L3.49828 3.80383C3.14527 3.45134 2.8637 2.99314 2.9163 2.67173C2.91768 2.65583 2.92089 2.64015 2.92586 2.62498C2.93011 2.60559 2.93595 2.5862 2.94366 2.56734C2.96358 2.52165 2.98881 2.48792 3.01298 2.46269C3.01458 2.46109 3.01458 2.46242 3.01617 2.45844C3.0167 2.45737 3.0183 2.45684 3.01644 2.45525H3.0175C3.03317 2.43931 3.05469 2.42311 3.07886 2.40744C2.97686 2.37025 2.88017 2.34448 2.79623 2.34448C2.64589 2.34448 2.55451 2.40451 2.50405 2.45525H2.50352C2.50272 2.45711 2.50325 2.45737 2.4998 2.45844C2.49873 2.46003 2.49873 2.46136 2.49794 2.46269C2.46878 2.49316 2.4453 2.52861 2.42861 2.56734C2.42011 2.5862 2.41533 2.60559 2.41081 2.62498C2.40576 2.63933 2.40364 2.655 2.40072 2.672C2.34919 2.9934 2.63022 3.45161 2.98217 3.80409L3.21433 4.03545" fill="#1C679A"/>
<path d="M0.982015 12.325C0.982015 11.9053 1.65139 11.7146 2.27375 11.7146H1.76056C1.13873 11.7146 0.468296 11.9053 0.468296 12.325C0.468296 12.7447 1.13847 12.9359 1.76056 12.9359H2.27375C1.65139 12.9359 0.982015 12.7447 0.982015 12.325Z" fill="#1C679A"/>
<path d="M3.01829 14.5189L3.01776 14.5173C3.01723 14.5168 3.01564 14.5157 3.0175 14.5152C2.98456 14.4815 2.95848 14.4417 2.94073 14.398C2.9402 14.3978 2.94047 14.3927 2.93754 14.3898C2.92006 14.3439 2.91045 14.2954 2.90912 14.2464V14.2448C2.90434 14.1465 2.92559 14.0224 2.99625 13.8641C3.09665 13.6399 3.27515 13.3937 3.49854 13.1703L3.73283 12.936H3.22017L2.98589 13.1703C2.76223 13.3937 2.58453 13.6402 2.48359 13.8641C2.41214 14.0224 2.39222 14.1462 2.39647 14.2448V14.2464C2.39965 14.3029 2.40948 14.3505 2.42383 14.3898C2.42575 14.3922 2.4272 14.395 2.42808 14.398C2.44959 14.4504 2.47854 14.4894 2.50484 14.5152C2.5059 14.5157 2.5059 14.5168 2.50697 14.5173C2.50803 14.5184 2.50803 14.5184 2.50803 14.5189C2.55876 14.5691 2.64987 14.6291 2.80022 14.6291C2.88415 14.6291 2.98084 14.6039 3.08284 14.5662C3.06072 14.5524 3.03991 14.5365 3.02069 14.5189" fill="#1C679A"/>
</g>
<defs>
<clipPath id="clip0_1910_4">
<rect width="17" height="17" fill="white"/>
</clipPath>
</defs>
</svg>
