<svg width="15" height="15" viewBox="0 0 15 15" fill="none" xmlns="http://www.w3.org/2000/svg">
<g clip-path="url(#clip0_1910_2)">
<path d="M13.9651 8.2241L10.482 8.63443L8.4375 7.45403L10.482 6.27363L13.9651 6.68399C13.9843 6.68625 14.0034 6.68736 14.0222 6.68736C14.2639 6.68736 14.4727 6.50642 14.5017 6.26047C14.5329 5.99534 14.3433 5.75507 14.0782 5.72384L11.8824 5.46515L13.2503 4.6754C13.4815 4.54189 13.5607 4.24626 13.4272 4.01504C13.2938 3.78383 12.9981 3.70459 12.7669 3.83809L11.399 4.62785L12.2728 2.5969C12.3783 2.35166 12.2651 2.06733 12.0198 1.9618C11.7747 1.85631 11.4903 1.96954 11.3847 2.21478L9.99862 5.43635L7.99579 6.5927V4.23181L10.0926 1.42063C10.2523 1.20662 10.2082 0.903746 9.99419 0.744137C9.78018 0.584528 9.47731 0.62859 9.3177 0.842604L7.99579 2.61483V1.19789C7.99579 0.930905 7.77935 0.714489 7.51239 0.714489C7.24544 0.714489 7.029 0.930905 7.029 1.19789V2.61486L5.70706 0.842604C5.54742 0.62859 5.24452 0.584557 5.03057 0.744137C4.81656 0.903776 4.77249 1.20665 4.9321 1.42063L7.029 4.23184V6.64081L4.94274 5.4363L3.55661 2.21478C3.45109 1.96957 3.16676 1.85631 2.92152 1.9618C2.67627 2.06733 2.56301 2.35169 2.66854 2.5969L3.54241 4.62785L2.31528 3.91936C2.08407 3.78591 1.78843 3.8651 1.65492 4.09631C1.52145 4.32753 1.60064 4.62316 1.83188 4.75667L3.05901 5.46515L0.863206 5.72384C0.59807 5.75507 0.40846 5.99534 0.439691 6.26047C0.468665 6.50642 0.677464 6.68739 0.919163 6.68736C0.93803 6.68736 0.957132 6.68625 0.976322 6.68399L4.45937 6.27363L6.50391 7.454L4.45937 8.63443L0.976351 8.2241C0.711126 8.1929 0.47095 8.38245 0.43972 8.64761C0.40849 8.91275 0.598099 9.15301 0.863236 9.18424L3.05901 9.44293L1.83191 10.1514C1.6007 10.2849 1.52148 10.5805 1.65495 10.8117C1.74449 10.9668 1.90697 11.0535 2.07405 11.0535C2.15605 11.0535 2.23916 11.0326 2.31528 10.9886L3.54243 10.2802L2.66854 12.3111C2.56301 12.5564 2.6763 12.8407 2.92152 12.9462C2.98177 12.9723 3.04672 12.9857 3.11236 12.9857C3.29965 12.9857 3.47792 12.8762 3.55664 12.6933L4.9428 9.4717L7.02903 8.26722V10.6281L4.93213 13.4393C4.77252 13.6533 4.81658 13.9561 5.0306 14.1158C5.11391 14.1781 5.21519 14.2118 5.31926 14.2117C5.46665 14.2117 5.6122 14.1445 5.70712 14.0173L7.02906 12.245V13.8246C7.02906 14.0915 7.24547 14.308 7.51245 14.308C7.77944 14.308 7.99585 14.0915 7.99585 13.8246V12.2451L9.31776 14.0173C9.47736 14.2313 9.78029 14.2754 9.99425 14.1157C10.2083 13.9561 10.2524 13.6532 10.0927 13.4392L7.99585 10.6281V8.31533L9.99867 9.47165L11.3848 12.6932C11.4635 12.8762 11.6418 12.9857 11.8291 12.9857C11.8947 12.9856 11.9597 12.9722 12.0199 12.9462C12.2652 12.8406 12.3784 12.5563 12.2729 12.3111L11.399 10.2801L12.767 11.0699C12.8403 11.1124 12.9235 11.1347 13.0082 11.1347C13.1752 11.1347 13.3378 11.048 13.4273 10.893C13.5608 10.6617 13.4816 10.3661 13.2504 10.2326L11.8825 9.44288L14.0782 9.18419C14.3434 9.15295 14.533 8.91266 14.5017 8.64755C14.4705 8.38251 14.2304 8.19287 13.9651 8.2241Z" fill="#59CAFC"/>
</g>
<defs>
<clipPath id="clip0_1910_2">
<rect width="15" height="15" fill="white"/>
</clipPath>
</defs>
</svg>
