<svg width="75" height="22" viewBox="0 0 75 22" fill="none" xmlns="http://www.w3.org/2000/svg">
<path fill-rule="evenodd" clip-rule="evenodd" d="M11.9157 2.3863C12.5054 2.38286 14.2577 2.22854 15 4.67802C15.5 6.32802 16.2965 9.0308 17.3894 12.7863H17.8345C19.0066 8.82698 19.8118 6.12421 20.25 4.67802C21 2.20302 22.875 2.38635 23.625 2.38635L29.4114 2.38636V19.9863H23.5137V9.61437H23.1183L19.8306 19.9863H15.3933L12.1057 9.60668H11.7102V19.9863H5.8125V2.38636L11.9157 2.3863ZM37.8804 2.38636V12.766H38.3509L42.35 4.2309C43.1263 2.53239 44.7809 2.38636 44.7809 2.38636H50.4881V19.9864H44.4672V9.60668H43.9967L40.076 18.1418C39.2997 19.8326 37.5667 19.9864 37.5667 19.9864H31.8595V2.38636H37.8804ZM71.2988 10.75C70.459 13.077 67.8215 14.7436 64.9015 14.7436H58.5875V19.9864H52.862V10.75H71.2988Z" fill="#0F754E"/>
<path fill-rule="evenodd" clip-rule="evenodd" d="M65.1777 2.38647H52.5618C52.862 6.30483 56.3131 9.6592 59.8857 9.6592H71.6967C72.3783 6.40258 70.0319 2.38647 65.1777 2.38647Z" fill="url(#paint0_linear_38_11)"/>
<defs>
<linearGradient id="paint0_linear_38_11" x1="71.8125" y1="6.96133" x2="52.5618" y2="6.96133" gradientUnits="userSpaceOnUse">
<stop stop-color="#1F5CD7"/>
<stop offset="1" stop-color="#02AEFF"/>
</linearGradient>
</defs>
</svg>
