<svg width="35" height="28" viewBox="0 0 35 28" fill="none" xmlns="http://www.w3.org/2000/svg">
<g clip-path="url(#clip0_38_5)">
<path d="M6.34356 27.9386V26.0804C6.34356 25.3696 5.92323 24.9041 5.20165 24.9041C4.84086 24.9041 4.44855 25.0268 4.17883 25.4309C3.96866 25.0918 3.66742 24.9041 3.21556 24.9041C2.91432 24.9041 2.61308 24.9979 2.37489 25.3371V24.9655H1.74438V27.9386H2.37489V26.2969C2.37489 25.7701 2.6446 25.5211 3.06494 25.5211C3.48528 25.5211 3.69545 25.799 3.69545 26.2969V27.9386H4.32595V26.2969C4.32595 25.7701 4.62719 25.5211 5.016 25.5211C5.43634 25.5211 5.64651 25.799 5.64651 26.2969V27.9386H6.34356ZM15.696 24.9655H14.6732V24.067H14.0427V24.9655H13.4718V25.5536H14.0427V26.9175C14.0427 27.5995 14.3124 28 15.034 28C15.3037 28 15.605 27.9062 15.8151 27.7835L15.633 27.2242C15.4508 27.3469 15.2407 27.3794 15.0901 27.3794C14.7888 27.3794 14.6697 27.1917 14.6697 26.885V25.5536H15.6925V24.9655H15.696ZM21.0483 24.9005C20.6875 24.9005 20.4458 25.0881 20.2952 25.3335V24.9619H19.6647V27.935H20.2952V26.2608C20.2952 25.7665 20.5054 25.4851 20.8977 25.4851C21.0168 25.4851 21.1674 25.5175 21.29 25.5464L21.4722 24.9258C21.3461 24.9005 21.1674 24.9005 21.0483 24.9005ZM12.9604 25.2108C12.6591 24.9943 12.2388 24.9005 11.7869 24.9005C11.0653 24.9005 10.5855 25.2722 10.5855 25.8603C10.5855 26.3546 10.9462 26.6361 11.5767 26.7263L11.878 26.7588C12.2073 26.8201 12.3894 26.9139 12.3894 27.0691C12.3894 27.2856 12.1477 27.4407 11.7274 27.4407C11.307 27.4407 10.9743 27.2856 10.7641 27.1304L10.4629 27.6247C10.7921 27.8737 11.244 27.9964 11.6958 27.9964C12.5365 27.9964 13.0199 27.5923 13.0199 27.0366C13.0199 26.5098 12.6276 26.232 12.0286 26.1381L11.7274 26.1057C11.4577 26.0732 11.2475 26.0119 11.2475 25.8278C11.2475 25.6113 11.4577 25.4887 11.7904 25.4887C12.1512 25.4887 12.512 25.6438 12.6941 25.7376L12.9604 25.2108ZM29.7353 24.9005C29.3745 24.9005 29.1328 25.0881 28.9822 25.3335V24.9619H28.3517V27.935H28.9822V26.2608C28.9822 25.7665 29.1923 25.4851 29.5847 25.4851C29.7037 25.4851 29.8544 25.5175 29.977 25.5464L30.1591 24.933C30.0365 24.9005 29.8579 24.9005 29.7353 24.9005ZM21.6788 26.4521C21.6788 27.3505 22.2813 28 23.2131 28C23.6334 28 23.9346 27.9062 24.2359 27.6608L23.9346 27.134C23.6929 27.3216 23.4548 27.4118 23.1815 27.4118C22.6701 27.4118 22.3093 27.0402 22.3093 26.4521C22.3093 25.8928 22.6701 25.5211 23.1815 25.4923C23.4512 25.4923 23.6929 25.5861 23.9346 25.7701L24.2359 25.2433C23.9346 24.9943 23.6334 24.9041 23.2131 24.9041C22.2813 24.9005 21.6788 25.5536 21.6788 26.4521ZM27.511 26.4521V24.9655H26.8805V25.3371C26.6703 25.0593 26.3691 24.9041 25.9768 24.9041C25.1641 24.9041 24.5336 25.5536 24.5336 26.4521C24.5336 27.3505 25.1641 28 25.9768 28C26.3971 28 26.6983 27.8448 26.8805 27.567V27.9386H27.511V26.4521ZM25.1956 26.4521C25.1956 25.9253 25.5249 25.4923 26.0678 25.4923C26.5793 25.4923 26.94 25.8964 26.94 26.4521C26.94 26.9789 26.5793 27.4118 26.0678 27.4118C25.5284 27.3794 25.1956 26.9753 25.1956 26.4521ZM17.6506 24.9005C16.8099 24.9005 16.2075 25.5211 16.2075 26.4485C16.2075 27.3794 16.8099 27.9964 17.6821 27.9964C18.1025 27.9964 18.5228 27.8737 18.8556 27.5923L18.5543 27.1268C18.3126 27.3144 18.0114 27.4371 17.7137 27.4371C17.3213 27.4371 16.9325 27.2495 16.8415 26.7263H18.9747C18.9747 26.6325 18.9747 26.5711 18.9747 26.4773C19.0027 25.5211 18.4598 24.9005 17.6506 24.9005ZM17.6506 25.4598C18.0429 25.4598 18.3126 25.7088 18.3722 26.1706H16.8695C16.929 25.7701 17.1987 25.4598 17.6506 25.4598ZM33.3151 26.4521V23.7892H32.6846V25.3371C32.4745 25.0593 32.1732 24.9041 31.7809 24.9041C30.9683 24.9041 30.3378 25.5536 30.3378 26.4521C30.3378 27.3505 30.9683 28 31.7809 28C32.2012 28 32.5025 27.8448 32.6846 27.567V27.9386H33.3151V26.4521ZM30.9998 26.4521C30.9998 25.9253 31.3291 25.4923 31.872 25.4923C32.3834 25.4923 32.7442 25.8964 32.7442 26.4521C32.7442 26.9789 32.3834 27.4118 31.872 27.4118C31.3291 27.3794 30.9998 26.9753 30.9998 26.4521ZM9.8919 26.4521V24.9655H9.2614V25.3371C9.05123 25.0593 8.74999 24.9041 8.35767 24.9041C7.54502 24.9041 6.91452 25.5536 6.91452 26.4521C6.91452 27.3505 7.54502 28 8.35767 28C8.77801 28 9.07925 27.8448 9.2614 27.567V27.9386H9.8919V26.4521ZM7.54853 26.4521C7.54853 25.9253 7.87779 25.4923 8.42072 25.4923C8.93213 25.4923 9.29292 25.8964 9.29292 26.4521C9.29292 26.9789 8.93213 27.4118 8.42072 27.4118C7.87779 27.3794 7.54853 26.9753 7.54853 26.4521Z" fill="black"/>
<path d="M22.2218 2.38501H12.7502V19.9139H22.2218V2.38501Z" fill="#FF5A00"/>
<path d="M13.3807 11.1495C13.3807 7.58814 15.006 4.42732 17.5 2.38505C15.6645 0.898454 13.3492 0 10.8237 0C4.84087 0 0 4.9866 0 11.1495C0 17.3124 4.84087 22.299 10.8237 22.299C13.3492 22.299 15.6645 21.4005 17.5 19.9139C15.0025 17.9005 13.3807 14.7108 13.3807 11.1495Z" fill="#EB001B"/>
<path d="M35 11.1495C35 17.3124 30.1591 22.299 24.1763 22.299C21.6508 22.299 19.3355 21.4005 17.5 19.9139C20.0255 17.868 21.6193 14.7108 21.6193 11.1495C21.6193 7.58814 19.994 4.42732 17.5 2.38505C19.332 0.898454 21.6473 0 24.1728 0C30.1591 0 35 5.01907 35 11.1495Z" fill="#F79E1B"/>
</g>
<defs>
<clipPath id="clip0_38_5">
<rect width="35" height="28" fill="white"/>
</clipPath>
</defs>
</svg>
