<svg width="67" height="22" viewBox="0 0 67 22" fill="none" xmlns="http://www.w3.org/2000/svg">
<g clip-path="url(#clip0_38_17)">
<path d="M29.0332 21.6826H23.6058L27.0005 0.385986H32.4277L29.0332 21.6826Z" fill="#00579F"/>
<path d="M48.7083 0.906558C47.6378 0.475652 45.9398 -0.00012207 43.8403 -0.00012207C38.4805 -0.00012207 34.7062 2.89969 34.683 7.04554C34.6385 10.1043 37.3853 11.8033 39.4397 12.8232C41.5395 13.8654 42.2533 14.5456 42.2533 15.4746C42.232 16.9013 40.5566 17.5589 38.9939 17.5589C36.827 17.5589 35.666 17.2199 33.9015 16.4261L33.1869 16.0858L32.4274 20.8665C33.7003 21.4549 36.0456 21.977 38.4805 21.9999C44.1754 21.9999 47.8829 19.1449 47.9268 14.7269C47.9485 12.3025 46.4981 10.4449 43.3711 8.92696C41.4728 7.95252 40.3102 7.29547 40.3102 6.29846C40.3325 5.39208 41.2935 4.46372 43.4364 4.46372C45.2008 4.41825 46.4972 4.84855 47.4793 5.27916L47.9702 5.5053L48.7083 0.906558Z" fill="#00579F"/>
<path d="M55.922 14.1379C56.3689 12.9145 58.0889 8.17934 58.0889 8.17934C58.0663 8.22481 58.5349 6.93329 58.8029 6.14044L59.1822 7.97548C59.1822 7.97548 60.21 13.0732 60.4332 14.1379C59.585 14.1379 56.994 14.1379 55.922 14.1379ZM62.6215 0.385986H58.4233C57.1287 0.385986 56.1452 0.770821 55.5866 2.15297L47.5248 21.6823H53.2197C53.2197 21.6823 54.1572 19.0538 54.3588 18.4877C54.9835 18.4877 60.5235 18.4877 61.3272 18.4877C61.483 19.2353 61.9748 21.6823 61.9748 21.6823H67.0001L62.6215 0.385986Z" fill="#00579F"/>
<path d="M19.0726 0.385986L13.7573 14.9082L13.1764 11.9629C12.1938 8.56447 9.11186 4.87211 5.67261 3.03616L10.5412 21.66H16.2806L24.8117 0.385986H19.0726Z" fill="#00579F"/>
<path d="M8.8216 0.385986H0.0893346L0 0.81629C6.81172 2.58358 11.323 6.84356 13.1765 11.9638L11.2782 2.17616C10.9656 0.815989 10.0052 0.430854 8.8216 0.385986Z" fill="#FAA61A"/>
</g>
<defs>
<clipPath id="clip0_38_17">
<rect width="67" height="22" fill="white"/>
</clipPath>
</defs>
</svg>
